<svg width="16" height="16" viewBox="0 0 16 16" fill="none" xmlns="http://www.w3.org/2000/svg">
<path d="M7.5661 5.49414L2.89943 9.49414C2.76787 9.60999 2.68723 9.77299 2.67497 9.94786C2.66271 10.1227 2.71982 10.2954 2.83393 10.4285C2.94804 10.5615 3.10997 10.6443 3.28466 10.6588C3.45935 10.6734 3.63274 10.6186 3.7673 10.5062L8.00003 6.87828L12.2328 10.5062C12.367 10.6213 12.5415 10.6783 12.7178 10.6648C12.8941 10.6512 13.0578 10.5682 13.1729 10.4339C13.288 10.2997 13.345 10.1252 13.3315 9.94891C13.3179 9.7726 13.2349 9.6089 13.1006 9.49381L8.43397 5.49381C8.31309 5.39025 8.15914 5.33336 7.99997 5.33342C7.8408 5.33348 7.6869 5.39049 7.5661 5.49414Z" fill="#626262"/>
</svg>