<svg width="16" height="16" viewBox="0 0 16 16" fill="none" xmlns="http://www.w3.org/2000/svg">
<path d="M8.4339 10.5059L13.1006 6.50586C13.2321 6.39001 13.3128 6.22701 13.325 6.05214C13.3373 5.87728 13.2802 5.70462 13.1661 5.57155C13.052 5.43848 12.89 5.35571 12.7153 5.34115C12.5407 5.3266 12.3673 5.38144 12.2327 5.49379L7.99997 9.12172L3.76723 5.49379C3.63298 5.3787 3.45851 5.32166 3.2822 5.33521C3.10589 5.34877 2.94219 5.4318 2.8271 5.56606C2.71201 5.70031 2.65497 5.87478 2.66853 6.05109C2.68208 6.2274 2.76512 6.3911 2.89937 6.50619L7.56603 10.5062C7.68691 10.6097 7.84086 10.6666 8.00003 10.6666C8.1592 10.6665 8.3131 10.6095 8.4339 10.5059Z" fill="#626262"/>
</svg>
