<svg width="16" height="16" viewBox="0 0 16 16" fill="none" xmlns="http://www.w3.org/2000/svg">
<path d="M8 14C9.698 13.9583 11.112 13.3723 12.242 12.242C13.372 11.1117 13.958 9.69767 14 8C13.9583 6.302 13.3723 4.888 12.242 3.758C11.1117 2.628 9.69767 2.042 8 2C6.302 2.04167 4.888 2.62767 3.758 3.758C2.628 4.88833 2.042 6.30233 2 8C2.04167 9.698 2.62767 11.112 3.758 12.242C4.88833 13.372 6.30233 13.958 8 14ZM8 15C6.02067 14.948 4.37217 14.2632 3.0545 12.9455C1.73683 11.6278 1.052 9.97933 1 8C1.052 6.02067 1.73683 4.37217 3.0545 3.0545C4.37217 1.73683 6.02067 1.052 8 1C9.97933 1.052 11.6278 1.73683 12.9455 3.0545C14.2632 4.37217 14.948 6.02067 15 8C14.948 9.97933 14.2632 11.6278 12.9455 12.9455C11.6278 14.2632 9.97933 14.948 8 15Z" fill="#640AB0"/>
<path d="M6.70317 9.89295L4.6282 7.73513C4.57366 7.67841 4.50999 7.63753 4.43705 7.61796C4.36412 7.59839 4.28853 7.60191 4.21291 7.6237C4.05631 7.66883 3.95353 7.7757 3.91459 7.93394C3.87594 8.09098 3.91466 8.23559 4.02373 8.35767L4.02368 8.35771L4.02622 8.36036L6.63117 11.0693L6.70325 11.1443L6.77533 11.0693L11.9852 5.6514L11.9853 5.6515L11.9888 5.64743C12.066 5.55807 12.1039 5.45242 12.0997 5.33507L11.9998 5.33862L12.0997 5.33507C12.0955 5.21833 12.0513 5.11563 11.9698 5.03114L11.898 5.10039L11.9698 5.03114C11.8884 4.94672 11.7885 4.9 11.6738 4.9C11.5612 4.9 11.4611 4.94318 11.3767 5.02206L11.3766 5.02195L11.3727 5.02592L6.70317 9.89295Z" fill="#640AB0" stroke="#640AB0" stroke-width="0.2"/>
</svg>
