<svg width="20" height="20" viewBox="0 0 20 20" fill="none" xmlns="http://www.w3.org/2000/svg">
<path fill-rule="evenodd" clip-rule="evenodd" d="M16.6324 3.34203C14.8783 1.58582 12.5454 0.618217 10.0601 0.617188C4.93885 0.617188 0.770912 4.78501 0.768852 9.90762C0.768166 11.5452 1.19595 13.1437 2.00905 14.5527L0.690918 19.3672L5.61634 18.0751C6.9735 18.8155 8.5014 19.2056 10.0563 19.2061H10.0602C15.1809 19.2061 19.3493 15.0379 19.3512 9.91505C19.3522 7.43237 18.3867 5.09812 16.6324 3.34203ZM10.0601 17.637H10.0569C8.67123 17.6364 7.31224 17.264 6.1264 16.5605L5.84454 16.3931L2.92171 17.1599L3.70186 14.3102L3.51818 14.018C2.74513 12.7884 2.33692 11.3673 2.33761 9.90819C2.33921 5.65041 5.80357 2.1864 10.0632 2.1864C12.1259 2.18709 14.0648 2.99138 15.5228 4.45107C16.9808 5.91077 17.7832 7.851 17.7826 9.91448C17.7807 14.1726 14.3166 17.637 10.0601 17.637ZM14.296 11.8532C14.0639 11.737 12.9225 11.1755 12.7096 11.0979C12.497 11.0204 12.342 10.9819 12.1874 11.2142C12.0326 11.4465 11.5878 11.9695 11.4523 12.1243C11.3168 12.2793 11.1815 12.2987 10.9493 12.1825C10.7171 12.0663 9.9691 11.8211 9.0823 11.0302C8.39222 10.4146 7.92633 9.65436 7.79083 9.42204C7.65556 9.1895 7.78969 9.07597 7.89268 8.94826C8.144 8.63618 8.39565 8.30899 8.47301 8.15415C8.55049 7.9992 8.5117 7.86359 8.45356 7.74743C8.39565 7.63127 7.93137 6.48858 7.73796 6.02361C7.54936 5.57111 7.35813 5.63222 7.21554 5.62512C7.08027 5.61837 6.92543 5.617 6.77059 5.617C6.61587 5.617 6.36433 5.67502 6.15147 5.90756C5.93872 6.13999 5.33905 6.70155 5.33905 7.84425C5.33905 8.98694 6.17092 10.0908 6.28696 10.2458C6.40301 10.4007 7.92404 12.7456 10.2528 13.7511C10.8067 13.9905 11.2391 14.1332 11.5763 14.2402C12.1325 14.4169 12.6384 14.392 13.0385 14.3322C13.4846 14.2655 14.4119 13.7706 14.6056 13.2283C14.799 12.686 14.799 12.2213 14.7408 12.1243C14.6829 12.0275 14.5281 11.9695 14.296 11.8532Z" fill="white"/>
</svg>
