<svg width="38" height="38" viewBox="0 0 38 38" fill="none" xmlns="http://www.w3.org/2000/svg">
<rect width="38" height="38" rx="8" fill="white"/>
<g clip-path="url(#clip0_9419_52899)">
<path d="M24.962 6H13.038C9.15716 6 6 9.15716 6 13.038V24.9622C6 28.8428 9.15716 32 13.038 32H24.9622C28.8428 32 32 28.8428 32 24.9622V13.038C32 9.15716 28.8428 6 24.962 6ZM19 26.1091C15.0799 26.1091 11.8908 22.92 11.8908 19C11.8908 15.0799 15.0799 11.8908 19 11.8908C22.92 11.8908 26.1091 15.0799 26.1091 19C26.1091 22.92 22.92 26.1091 19 26.1091ZM26.2791 13.5674C25.1207 13.5674 24.1785 12.6252 24.1785 11.4667C24.1785 10.3083 25.1207 9.36584 26.2791 9.36584C27.4376 9.36584 28.38 10.3083 28.38 11.4667C28.38 12.6252 27.4376 13.5674 26.2791 13.5674Z" fill="#640AB0"/>
<path d="M18.999 13.415C15.9196 13.415 13.4141 15.9204 13.4141 19C13.4141 22.0794 15.9196 24.5849 18.999 24.5849C22.0786 24.5849 24.5839 22.0794 24.5839 19C24.5839 15.9204 22.0786 13.415 18.999 13.415Z" fill="#640AB0"/>
<path d="M26.2796 10.8906C25.9618 10.8906 25.7031 11.1493 25.7031 11.4671C25.7031 11.7848 25.9618 12.0435 26.2796 12.0435C26.5975 12.0435 26.8562 11.785 26.8562 11.4671C26.8562 11.1491 26.5975 10.8906 26.2796 10.8906Z" fill="#640AB0"/>
</g>
<defs>
<clipPath id="clip0_9419_52899">
<rect width="26" height="26" fill="white" transform="translate(6 6)"/>
</clipPath>
</defs>
</svg>
