<svg width="74" height="73" viewBox="0 0 74 73" fill="none" xmlns="http://www.w3.org/2000/svg">
<path d="M36.5163 73C30.1316 73 23.8447 71.3061 18.307 68.1138L4.07184 73L7.00357 57.9505C2.41053 51.6635 0 44.2691 0 36.5163C0 16.3851 16.3851 0 36.5163 0C56.6475 0 73.0326 16.3851 73.0326 36.5163C73 56.6149 56.6475 73 36.5163 73Z" fill="#66F27B"/>
<path d="M36.5161 60.3613C32.3465 60.3613 28.2421 59.2538 24.6263 57.169L15.3099 60.3613L17.2319 50.5237C14.235 46.4193 12.6714 41.5982 12.6714 36.5166C12.6714 23.3564 23.3559 12.6719 36.5161 12.6719C49.6763 12.6719 60.3608 23.3564 60.3608 36.5166C60.3608 49.6442 49.6437 60.3613 36.5161 60.3613ZM25.0498 53.26L25.7664 53.716C28.9913 55.7357 32.7374 56.8107 36.5161 56.8107C47.7218 56.8107 56.8102 47.6897 56.8102 36.5166C56.8102 25.3109 47.6892 16.2225 36.5161 16.2225C25.3104 16.2225 16.222 25.3434 16.222 36.5166C16.222 41.077 17.7205 45.3769 20.5219 48.9927L21.0105 49.6442L19.9681 55.019L25.0498 53.26Z" fill="white"/>
<path d="M24.4637 27.3302C24.4637 27.3302 25.8644 24.8871 27.0045 24.7568C28.1446 24.6265 29.6105 24.6265 30.0014 25.3757C30.3923 26.125 32.1513 30.4574 32.1513 30.4574C32.1513 30.4574 32.4445 31.2066 31.9884 31.9233C31.5324 32.6399 30.49 33.6823 30.49 33.6823C30.49 33.6823 29.9036 34.4315 30.49 35.2133C31.0763 35.9951 31.9884 37.461 33.8452 39.3177C35.702 41.1745 39.2852 42.51 39.2852 42.51C39.2852 42.51 39.8064 42.5752 40.1321 42.2495C40.4579 41.9237 42.2169 39.7086 42.2169 39.7086C42.2169 39.7086 42.7707 38.9594 43.7153 39.4154C44.66 39.8389 48.7319 41.8911 48.7319 41.8911C48.7319 41.8911 49.2205 42.054 49.2205 42.8032C49.2205 43.5199 48.9273 45.2789 48.341 45.8978C47.7546 46.4842 45.9956 48.3409 43.357 48.3409C40.7185 48.3409 34.4967 46.191 31.1415 42.8684C27.8189 39.5457 24.8546 36.158 24.1705 33.0959C23.519 30.0013 23.6167 28.6006 24.4637 27.3302Z" fill="white"/>
</svg>
