<svg width="39" height="39" viewBox="0 0 39 39" fill="none" xmlns="http://www.w3.org/2000/svg">
<rect width="38.0194" height="38.0194" rx="10" fill="white"/>
<path d="M31.1071 15.7848C31.1071 12.7674 28.6709 10.3672 25.6082 10.3672H11.5477C8.48505 10.3672 6.04883 12.7674 6.04883 15.7848V22.2311C6.04883 25.2485 8.48505 27.6487 11.5477 27.6487H25.6082C28.6709 27.6487 31.1071 25.2485 31.1071 22.2311V15.7848ZM22.8239 19.488L16.5594 22.574C16.2809 22.7112 15.4457 22.5054 15.4457 22.2311V15.922C15.4457 15.6476 16.2809 15.4419 16.5594 15.5791L22.6151 18.8022C22.8239 18.9394 23.1024 19.3509 22.8239 19.488Z" fill="#620CB3"/>
</svg>
